<svg width="113" height="160" viewBox="0 0 113 160" fill="none" xmlns="http://www.w3.org/2000/svg">
<path d="M86.5 0C38.8075 0 0 38.8074 0 86.5C0 134.193 38.8075 173 86.5 173C134.193 173 173 134.193 173 86.5C173 38.8074 134.193 0 86.5 0ZM21.709 86.5C21.709 64.0277 33.2505 44.1812 50.6848 32.5481V140.421C33.2505 128.819 21.709 108.972 21.709 86.5ZM72.4243 149.703V23.2966C76.9737 22.289 81.6758 21.7089 86.5 21.7089C92.0571 21.7089 97.4308 22.5028 102.591 23.8157V149.184C97.4308 150.497 92.0571 151.291 86.5 151.291C81.6758 151.291 76.9737 150.711 72.4243 149.703ZM124.33 138.986V34.0137C140.635 45.7995 151.291 64.9132 151.291 86.5C151.291 108.087 140.635 127.201 124.33 138.986Z" fill="#00CCCC" fill-opacity="0.07"/>
</svg>
