<svg width="25" height="24" viewBox="0 0 25 24" fill="none" xmlns="http://www.w3.org/2000/svg">
<path d="M12.0706 0C5.41538 0 0 5.38369 0 12C0 18.6163 5.41538 24 12.0706 24C18.7258 24 24.1412 18.6163 24.1412 12C24.1412 5.38369 18.7258 0 12.0706 0ZM3.02937 12C3.02937 8.88246 4.63992 6.12918 7.07279 4.51535V19.4804C4.63992 17.8708 3.02937 15.1175 3.02937 12ZM10.1064 20.7681V3.2319C10.7413 3.09212 11.3974 3.01164 12.0706 3.01164C12.8461 3.01164 13.5959 3.12178 14.316 3.30391V20.6961C13.5959 20.8782 12.8461 20.9884 12.0706 20.9884C11.3974 20.9884 10.7413 20.9079 10.1064 20.7681ZM17.3496 19.2813V4.71867C19.6249 6.35368 21.1118 9.00529 21.1118 12C21.1118 14.9947 19.6249 17.6463 17.3496 19.2813Z" fill="#00CCCC"/>
</svg>
